<svg id="mermaid-1611151857325" width="388.55859375" xmlns="http://www.w3.org/2000/svg" xmlns:xlink="http://www.w3.org/1999/xlink" height="787.59375" viewBox="-20 -20 388.55859375 787.59375"><style>#mermaid-1611151857325{font-family:"trebuchet ms",verdana,arial;font-size:16px;fill:#333;}#mermaid-1611151857325 .error-icon{fill:#552222;}#mermaid-1611151857325 .error-text{fill:#552222;stroke:#552222;}#mermaid-1611151857325 .edge-thickness-normal{stroke-width:2px;}#mermaid-1611151857325 .edge-thickness-thick{stroke-width:3.5px;}#mermaid-1611151857325 .edge-pattern-solid{stroke-dasharray:0;}#mermaid-1611151857325 .edge-pattern-dashed{stroke-dasharray:3;}#mermaid-1611151857325 .edge-pattern-dotted{stroke-dasharray:2;}#mermaid-1611151857325 .marker{fill:#333333;}#mermaid-1611151857325 .marker.cross{stroke:#333333;}#mermaid-1611151857325 svg{font-family:"trebuchet ms",verdana,arial;font-size:16px;}#mermaid-1611151857325 g.classGroup text{fill:#9370DB;fill:#131300;stroke:none;font-family:"trebuchet ms",verdana,arial;font-size:10px;}#mermaid-1611151857325 g.classGroup text .title{font-weight:bolder;}#mermaid-1611151857325 .node rect,#mermaid-1611151857325 .node circle,#mermaid-1611151857325 .node ellipse,#mermaid-1611151857325 .node polygon,#mermaid-1611151857325 .node path{fill:#ECECFF;stroke:#9370DB;stroke-width:1px;}#mermaid-1611151857325 .divider{stroke:#9370DB;stroke:1;}#mermaid-1611151857325 g.clickable{cursor:pointer;}#mermaid-1611151857325 g.classGroup rect{fill:#ECECFF;stroke:#9370DB;}#mermaid-1611151857325 g.classGroup line{stroke:#9370DB;stroke-width:1;}#mermaid-1611151857325 .classLabel .box{stroke:none;stroke-width:0;fill:#ECECFF;opacity:0.5;}#mermaid-1611151857325 .classLabel .label{fill:#9370DB;font-size:10px;}#mermaid-1611151857325 .relation{stroke:#333333;stroke-width:1;fill:none;}#mermaid-1611151857325 .dashed-line{stroke-dasharray:3;}#mermaid-1611151857325 #compositionStart,#mermaid-1611151857325 .composition{fill:#333333 !important;stroke:#333333 !important;stroke-width:1;}#mermaid-1611151857325 #compositionEnd,#mermaid-1611151857325 .composition{fill:#333333 !important;stroke:#333333 !important;stroke-width:1;}#mermaid-1611151857325 #dependencyStart,#mermaid-1611151857325 .dependency{fill:#333333 !important;stroke:#333333 !important;stroke-width:1;}#mermaid-1611151857325 #dependencyStart,#mermaid-1611151857325 .dependency{fill:#333333 !important;stroke:#333333 !important;stroke-width:1;}#mermaid-1611151857325 #extensionStart,#mermaid-1611151857325 .extension{fill:#333333 !important;stroke:#333333 !important;stroke-width:1;}#mermaid-1611151857325 #extensionEnd,#mermaid-1611151857325 .extension{fill:#333333 !important;stroke:#333333 !important;stroke-width:1;}#mermaid-1611151857325 #aggregationStart,#mermaid-1611151857325 .aggregation{fill:#ECECFF !important;stroke:#333333 !important;stroke-width:1;}#mermaid-1611151857325 #aggregationEnd,#mermaid-1611151857325 .aggregation{fill:#ECECFF !important;stroke:#333333 !important;stroke-width:1;}#mermaid-1611151857325:root{--mermaid-font-family:"trebuchet ms",verdana,arial;}#mermaid-1611151857325 class{fill:apa;}</style><g/><defs><marker id="extensionStart" class="extension" refX="0" refY="7" markerWidth="190" markerHeight="240" orient="auto"><path d="M 1,7 L18,13 V 1 Z"/></marker></defs><defs><marker id="extensionEnd" refX="19" refY="7" markerWidth="20" markerHeight="28" orient="auto"><path d="M 1,1 V 13 L18,7 Z"/></marker></defs><defs><marker id="compositionStart" class="extension" refX="0" refY="7" markerWidth="190" markerHeight="240" orient="auto"><path d="M 18,7 L9,13 L1,7 L9,1 Z"/></marker></defs><defs><marker id="compositionEnd" refX="19" refY="7" markerWidth="20" markerHeight="28" orient="auto"><path d="M 18,7 L9,13 L1,7 L9,1 Z"/></marker></defs><defs><marker id="aggregationStart" class="extension" refX="0" refY="7" markerWidth="190" markerHeight="240" orient="auto"><path d="M 18,7 L9,13 L1,7 L9,1 Z"/></marker></defs><defs><marker id="aggregationEnd" refX="19" refY="7" markerWidth="20" markerHeight="28" orient="auto"><path d="M 18,7 L9,13 L1,7 L9,1 Z"/></marker></defs><defs><marker id="dependencyStart" class="extension" refX="0" refY="7" markerWidth="190" markerHeight="240" orient="auto"><path d="M 5,7 L9,13 L1,7 L9,1 Z"/></marker></defs><defs><marker id="dependencyEnd" refX="19" refY="7" markerWidth="20" markerHeight="28" orient="auto"><path d="M 18,7 L9,13 L14,7 L9,1 Z"/></marker></defs><g id="classid-X86ROPfuscator-360" class="classGroup" transform="translate(126.94140720367432,80.84375 )"><rect x="0" y="0" width="156.515625" height="60.015625" class=" "/><text y="15" x="0"><tspan class="title" x="39.9765625">X86ROPfuscator</tspan></text><line x1="0" y1="21.671875" y2="21.671875" x2="156.515625"/><text x="5" y="31.671875" fill="white" class="classText"><tspan x="5">- ropfuscator: ROPfuscatorCore</tspan></text><line x1="0" y1="38.34375" y2="38.34375" x2="156.515625"/><text x="5" y="53.34375" fill="white" class="classText"><tspan x="5">+runOnMachineFunction()</tspan></text></g><g id="classid-ROPfuscatorCore-361" class="classGroup" transform="translate(150.12890338897705,190.859375 )"><rect x="0" y="0" width="110.140625" height="58.34375" class=" "/><text y="15" x="0"><tspan class="title" x="15.492191314697266">ROPfuscatorCore</tspan></text><line x1="0" y1="21.671875" y2="21.671875" x2="110.14063262939453"/><text x="5" y="31.671875" fill="white" class="classText"/><line x1="0" y1="26.671875" y2="26.671875" x2="110.14063262939453"/><text x="5" y="41.671875" fill="white" class="classText"><tspan x="5">+obfuscateFunction()</tspan><tspan x="5" dy="10">-insertROPChain()</tspan></text></g><g id="classid-ROPEngine-362" class="classGroup" transform="translate(168.76171970367432,299.203125 )"><rect x="0" y="0" width="72.875" height="58.34375" class=" "/><text y="15" x="0"><tspan class="title" x="11.265625">ROPEngine</tspan></text><line x1="0" y1="21.671875" y2="21.671875" x2="72.875"/><text x="5" y="31.671875" fill="white" class="classText"/><line x1="0" y1="26.671875" y2="26.671875" x2="72.875"/><text x="5" y="41.671875" fill="white" class="classText"><tspan x="5">+ropify()</tspan><tspan x="5" dy="10">-handleXXX()</tspan></text></g><g id="classid-ROPChainBuilder-363" class="classGroup" transform="translate(160.38671970367432,407.546875 )"><rect x="0" y="0" width="89.625" height="58.34375" class=" "/><text y="15" x="0"><tspan class="title" x="5">ROPChainBuilder</tspan></text><line x1="0" y1="21.671875" y2="21.671875" x2="89.625"/><text x="5" y="31.671875" fill="white" class="classText"/><line x1="0" y1="26.671875" y2="26.671875" x2="89.625"/><text x="5" y="41.671875" fill="white" class="classText"><tspan x="5">+append()</tspan><tspan x="5" dy="10">+build()</tspan></text></g><g id="classid-BinaryAutopsy-364" class="classGroup" transform="translate(0,516.7265625 )"><rect x="0" y="0" width="128.6875" height="68.34375" class=" "/><text y="15" x="0"><tspan x="38.8046875">«singleton»</tspan><tspan class="title" dy="10" x="30.53125">BinaryAutopsy</tspan></text><line x1="0" y1="31.671875" y2="31.671875" x2="128.6875"/><text x="5" y="41.671875" fill="white" class="classText"/><line x1="0" y1="36.671875" y2="36.671875" x2="128.6875"/><text x="5" y="51.671875" fill="white" class="classText"><tspan x="5">+findGadgetPrimitive()</tspan><tspan x="5" dy="10">+undoXchgs()</tspan></text></g><g id="classid-ROPChain-365" class="classGroup" transform="translate(240.19921970367432,515.890625 )"><rect x="0" y="0" width="108.359375" height="70.015625" class=" "/><text y="15" x="0"><tspan class="title" x="31.539058685302734">ROPChain</tspan></text><line x1="0" y1="21.671875" y2="21.671875" x2="108.35936737060547"/><text x="5" y="31.671875" fill="white" class="classText"><tspan x="5">+ chain: ChainElem[]</tspan></text><line x1="0" y1="38.34375" y2="38.34375" x2="108.35936737060547"/><text x="5" y="53.34375" fill="white" class="classText"><tspan x="5">+merge()</tspan><tspan x="5" dy="10">+append()</tspan></text></g><g id="classid-llvm_MachineFunctionPass-366" class="classGroup" transform="translate(137.73828220367432,0 )"><rect x="0" y="0" width="134.921875" height="30.84375" class=" "/><text y="15" x="0"><tspan class="title" x="5">llvm_MachineFunctionPass</tspan></text><line x1="0" y1="21.671875" y2="21.671875" x2="134.921875"/><text x="5" y="31.671875" fill="white" class="classText"/><line x1="0" y1="26.671875" y2="26.671875" x2="134.921875"/><text x="5" y="41.671875" fill="white" class="classText"/></g><g id="classid-ChainElem-367" class="classGroup" transform="translate(220.16405963897705,635.90625 )"><rect x="0" y="0" width="59.25" height="30.84375" class=" "/><text y="15" x="0"><tspan class="title" x="5.000001907348633">ChainElem</tspan></text><line x1="0" y1="21.671875" y2="21.671875" x2="59.250003814697266"/><text x="5" y="31.671875" fill="white" class="classText"/><line x1="0" y1="26.671875" y2="26.671875" x2="59.250003814697266"/><text x="5" y="41.671875" fill="white" class="classText"/></g><g id="classid-ELFParser-368" class="classGroup" transform="translate(72.88281536102295,635.90625 )"><rect x="0" y="0" width="57.109375" height="30.84375" class=" "/><text y="15" x="0"><tspan class="title" x="4.999998092651367">ELFParser</tspan></text><line x1="0" y1="21.671875" y2="21.671875" x2="57.109371185302734"/><text x="5" y="31.671875" fill="white" class="classText"/><line x1="0" y1="26.671875" y2="26.671875" x2="57.109371185302734"/><text x="5" y="41.671875" fill="white" class="classText"/></g><g id="classid-MicroGadget-369" class="classGroup" transform="translate(129.7890625,716.75 )"><rect x="0" y="0" width="68.265625" height="30.84375" class=" "/><text y="15" x="0"><tspan class="title" x="5">MicroGadget</tspan></text><line x1="0" y1="21.671875" y2="21.671875" x2="68.265625"/><text x="5" y="31.671875" fill="white" class="classText"/><line x1="0" y1="26.671875" y2="26.671875" x2="68.265625"/><text x="5" y="41.671875" fill="white" class="classText"/></g><path d="M205.19921970367432,30.84375L205.19921970367432,35.010416666666664C205.19921970367432,39.177083333333336,205.19921970367432,47.510416666666664,205.19921970367432,55.84375C205.19921970367432,64.17708333333333,205.19921970367432,72.51041666666667,205.19921970367432,76.67708333333333L205.19921970367432,80.84375" id="edge416" class="relation" marker-start="url(#extensionStart)"/><path d="M205.19921970367432,140.859375L205.19921970367432,145.02604166666666C205.19921970367432,149.19270833333334,205.19921970367432,157.52604166666666,205.19921970367432,165.859375C205.19921970367432,174.19270833333334,205.19921970367432,182.52604166666666,205.19921970367432,186.69270833333334L205.19921970367432,190.859375" id="edge417" class="relation dashed-line" marker-end="url(#dependencyEnd)"/><g class="classLabel"><rect class="box" x="184.71875" y="154.1875" width="40.953125" height="16.671875"/><text class="label" x="205.19921970367432" y="165.859375" fill="red" text-anchor="middle">&lt;&lt;use&gt;&gt;</text></g><path d="M205.19921970367432,249.203125L205.19921970367432,253.36979166666666C205.19921970367432,257.5364583333333,205.19921970367432,265.8697916666667,205.19921970367432,274.203125C205.19921970367432,282.5364583333333,205.19921970367432,290.8697916666667,205.19921970367432,295.0364583333333L205.19921970367432,299.203125" id="edge418" class="relation dashed-line" marker-end="url(#dependencyEnd)"/><g class="classLabel"><rect class="box" x="184.71875" y="262.53125" width="40.953125" height="16.671875"/><text class="label" x="205.19921970367432" y="274.203125" fill="red" text-anchor="middle">&lt;&lt;use&gt;&gt;</text></g><path d="M150.12890338897705,239.80688224900143L134.16471115748087,245.53958937416783C118.2005189259847,251.2722964993343,86.27213446299235,262.73771074966714,70.30794223149617,277.4990637081669C54.34375,292.2604166666667,54.34375,310.3177083333333,54.34375,328.375C54.34375,346.4322916666667,54.34375,364.4895833333333,54.34375,382.546875C54.34375,400.6041666666667,54.34375,418.6614583333333,54.34375,436.71875C54.34375,454.7760416666667,54.34375,472.8333333333333,55.061321496766915,486.16796875C55.77889299353382,499.5026041666667,57.21403598706765,508.1145833333333,57.93160748383457,512.4205729166666L58.649178980601484,516.7265625" id="edge419" class="relation dashed-line" marker-end="url(#dependencyEnd)"/><g class="classLabel"><rect class="box" x="33.859375" y="333.078125" width="40.96875" height="16.6875"/><text class="label" x="54.34375" y="344.7561076689383" fill="red" text-anchor="middle">&lt;&lt;use&gt;&gt;</text></g><path d="M205.19921970367432,357.546875L205.19921970367432,361.7135416666667C205.19921970367432,365.8802083333333,205.19921970367432,374.2135416666667,205.19921970367432,382.546875C205.19921970367432,390.8802083333333,205.19921970367432,399.2135416666667,205.19921970367432,403.3802083333333L205.19921970367432,407.546875" id="edge420" class="relation dashed-line" marker-end="url(#dependencyEnd)"/><g class="classLabel"><rect class="box" x="184.71875" y="370.875" width="40.953125" height="16.671875"/><text class="label" x="205.19921970367432" y="382.546875" fill="red" text-anchor="middle">&lt;&lt;use&gt;&gt;</text></g><path d="M234.5961723198353,465.890625L238.79498719091703,470.0572916666667C242.99380206199876,474.2239583333333,251.39143180416224,482.5572916666667,257.99200629631076,490.890625C264.5925807884593,499.2239583333333,269.3961000305929,507.5572916666667,271.7978596516597,511.7239583333333L274.19961927272647,515.890625" id="edge421" class="relation dashed-line" marker-end="url(#dependencyEnd)"/><g class="classLabel"><rect class="box" x="229.953125" y="476.875" width="54.953125" height="16.6875"/><text class="label" x="257.4338562892584" y="488.55345235984214" fill="red" text-anchor="middle">&lt;&lt;create&gt;&gt;</text></g><path d="M258.60806580706634,249.203125L266.2365387373848,253.36979166666666C273.86501166770324,257.5364583333333,289.12195752834015,265.8697916666667,296.7504304586586,279.0651041666667C304.37890338897705,292.2604166666667,304.37890338897705,310.3177083333333,304.37890338897705,328.375C304.37890338897705,346.4322916666667,304.37890338897705,364.4895833333333,304.37890338897705,382.546875C304.37890338897705,400.6041666666667,304.37890338897705,418.6614583333333,304.37890338897705,436.71875C304.37890338897705,454.7760416666667,304.37890338897705,472.8333333333333,303.6845493552141,486.0286458333333C302.99019532145115,499.2239583333333,301.6014872539252,507.5572916666667,300.9071332201622,511.7239583333333L300.21277918639925,515.890625" id="edge422" class="relation dashed-line" marker-end="url(#dependencyEnd)"/><g class="classLabel"><rect class="box" x="283.90625" y="357.46875" width="40.953125" height="16.6875"/><text class="label" x="304.37890338897705" y="369.14258858328395" fill="red" text-anchor="middle">&lt;&lt;use&gt;&gt;</text></g><path d="M205.19921970367432,465.890625L205.19921970367432,470.0572916666667C205.19921970367432,474.2239583333333,205.19921970367432,482.5572916666667,205.19921970367432,496.7252604166667C205.19921970367432,510.8932291666667,205.19921970367432,530.8958333333334,205.19921970367432,550.8984375C205.19921970367432,570.9010416666666,205.19921970367432,590.9036458333334,209.79551830876656,605.0716145833334C214.39181691385886,619.2395833333334,223.5844141240434,627.5729166666666,228.18071272913565,631.7395833333334L232.77701133422792,635.90625" id="edge423" class="relation dashed-line" marker-end="url(#dependencyEnd)"/><g class="classLabel"><rect class="box" x="177.71875" y="545.328125" width="54.953125" height="16.6875"/><text class="label" x="205.19921970367432" y="557.0098223975448" fill="red" text-anchor="middle">&lt;&lt;create&gt;&gt;</text></g><path d="M173.06556218276287,465.890625L168.47585926958143,470.0572916666667C163.88615635640002,474.2239583333333,154.70675053003717,482.5572916666667,144.29154426041234,491.0299479166667C133.8763379907875,499.5026041666667,122.22533127790068,508.1145833333333,116.39982792145726,512.4205729166666L110.57432456501385,516.7265625" id="edge424" class="relation dashed-line" marker-end="url(#dependencyEnd)"/><g class="classLabel"><rect class="box" x="122.53125" y="481.078125" width="40.953125" height="16.6875"/><text class="label" x="143.00565671040502" y="492.75456045193386" fill="red" text-anchor="middle">&lt;&lt;use&gt;&gt;</text></g><path d="M85.46704991815798,585.0703125L88.1287917574107,589.3763020833334C90.79053359666342,593.6822916666666,96.11401727516886,602.2942708333334,98.77575911442159,610.7669270833334C101.43750095367432,619.2395833333334,101.43750095367432,627.5729166666666,101.43750095367432,631.7395833333334L101.43750095367432,635.90625" id="edge425" class="relation dashed-line" marker-end="url(#dependencyEnd)"/><g class="classLabel"><rect class="box" x="79.546875" y="596.953125" width="40.953125" height="16.671875"/><text class="label" x="100.02479683910785" y="608.6208708877405" fill="red" text-anchor="middle">&lt;&lt;use&gt;&gt;</text></g><path d="M49.27538284586829,585.0703125L47.376621598394074,589.3763020833334C45.47786035091985,593.6822916666666,41.680337855971395,602.2942708333334,39.781576608497176,613.3372395833334C37.88281536102295,624.3802083333334,37.88281536102295,637.8541666666666,37.88281536102295,651.328125C37.88281536102295,664.8020833333334,37.88281536102295,678.2760416666666,53.20052321751913,689.925549330732C68.5182310740153,701.5750569947974,99.15364678700765,711.4001139895948,114.47135464350383,716.3126424869934L129.7890625,721.2251709843921" id="edge426" class="relation" marker-start="url(#aggregationStart)"/><path d="M249.78906154632568,666.75L249.78906154632568,670.9166666666666C249.78906154632568,675.0833333333334,249.78906154632568,683.4166666666666,240.93791488519173,691.75C232.08676822405778,700.0833333333334,214.3844749017899,708.4166666666666,205.53332824065595,712.5833333333334L196.68218157952202,716.75" id="edge427" class="relation" marker-start="url(#aggregationStart)"/><path d="M294.37890338897705,585.90625L294.37890338897705,590.0729166666666C294.37890338897705,594.2395833333334,294.37890338897705,602.5729166666666,289.7826047838848,610.90625C285.1863061787925,619.2395833333334,275.99370896860796,627.5729166666666,271.3974103635157,631.7395833333334L266.8011117584234,635.90625" id="edge428" class="relation" marker-start="url(#compositionStart)"/></svg>