<svg id="mermaid-1611151846689" width="1023.0078125" xmlns="http://www.w3.org/2000/svg" xmlns:xlink="http://www.w3.org/1999/xlink" height="916.765625" viewBox="-20 -20 1023.0078125 916.765625"><style>#mermaid-1611151846689{font-family:"trebuchet ms",verdana,arial;font-size:16px;fill:#333;}#mermaid-1611151846689 .error-icon{fill:#552222;}#mermaid-1611151846689 .error-text{fill:#552222;stroke:#552222;}#mermaid-1611151846689 .edge-thickness-normal{stroke-width:2px;}#mermaid-1611151846689 .edge-thickness-thick{stroke-width:3.5px;}#mermaid-1611151846689 .edge-pattern-solid{stroke-dasharray:0;}#mermaid-1611151846689 .edge-pattern-dashed{stroke-dasharray:3;}#mermaid-1611151846689 .edge-pattern-dotted{stroke-dasharray:2;}#mermaid-1611151846689 .marker{fill:#333333;}#mermaid-1611151846689 .marker.cross{stroke:#333333;}#mermaid-1611151846689 svg{font-family:"trebuchet ms",verdana,arial;font-size:16px;}#mermaid-1611151846689 g.classGroup text{fill:#9370DB;fill:#131300;stroke:none;font-family:"trebuchet ms",verdana,arial;font-size:10px;}#mermaid-1611151846689 g.classGroup text .title{font-weight:bolder;}#mermaid-1611151846689 .node rect,#mermaid-1611151846689 .node circle,#mermaid-1611151846689 .node ellipse,#mermaid-1611151846689 .node polygon,#mermaid-1611151846689 .node path{fill:#ECECFF;stroke:#9370DB;stroke-width:1px;}#mermaid-1611151846689 .divider{stroke:#9370DB;stroke:1;}#mermaid-1611151846689 g.clickable{cursor:pointer;}#mermaid-1611151846689 g.classGroup rect{fill:#ECECFF;stroke:#9370DB;}#mermaid-1611151846689 g.classGroup line{stroke:#9370DB;stroke-width:1;}#mermaid-1611151846689 .classLabel .box{stroke:none;stroke-width:0;fill:#ECECFF;opacity:0.5;}#mermaid-1611151846689 .classLabel .label{fill:#9370DB;font-size:10px;}#mermaid-1611151846689 .relation{stroke:#333333;stroke-width:1;fill:none;}#mermaid-1611151846689 .dashed-line{stroke-dasharray:3;}#mermaid-1611151846689 #compositionStart,#mermaid-1611151846689 .composition{fill:#333333 !important;stroke:#333333 !important;stroke-width:1;}#mermaid-1611151846689 #compositionEnd,#mermaid-1611151846689 .composition{fill:#333333 !important;stroke:#333333 !important;stroke-width:1;}#mermaid-1611151846689 #dependencyStart,#mermaid-1611151846689 .dependency{fill:#333333 !important;stroke:#333333 !important;stroke-width:1;}#mermaid-1611151846689 #dependencyStart,#mermaid-1611151846689 .dependency{fill:#333333 !important;stroke:#333333 !important;stroke-width:1;}#mermaid-1611151846689 #extensionStart,#mermaid-1611151846689 .extension{fill:#333333 !important;stroke:#333333 !important;stroke-width:1;}#mermaid-1611151846689 #extensionEnd,#mermaid-1611151846689 .extension{fill:#333333 !important;stroke:#333333 !important;stroke-width:1;}#mermaid-1611151846689 #aggregationStart,#mermaid-1611151846689 .aggregation{fill:#ECECFF !important;stroke:#333333 !important;stroke-width:1;}#mermaid-1611151846689 #aggregationEnd,#mermaid-1611151846689 .aggregation{fill:#ECECFF !important;stroke:#333333 !important;stroke-width:1;}#mermaid-1611151846689:root{--mermaid-font-family:"trebuchet ms",verdana,arial;}#mermaid-1611151846689 class{fill:apa;}</style><g/><defs><marker id="extensionStart" class="extension" refX="0" refY="7" markerWidth="190" markerHeight="240" orient="auto"><path d="M 1,7 L18,13 V 1 Z"/></marker></defs><defs><marker id="extensionEnd" refX="19" refY="7" markerWidth="20" markerHeight="28" orient="auto"><path d="M 1,1 V 13 L18,7 Z"/></marker></defs><defs><marker id="compositionStart" class="extension" refX="0" refY="7" markerWidth="190" markerHeight="240" orient="auto"><path d="M 18,7 L9,13 L1,7 L9,1 Z"/></marker></defs><defs><marker id="compositionEnd" refX="19" refY="7" markerWidth="20" markerHeight="28" orient="auto"><path d="M 18,7 L9,13 L1,7 L9,1 Z"/></marker></defs><defs><marker id="aggregationStart" class="extension" refX="0" refY="7" markerWidth="190" markerHeight="240" orient="auto"><path d="M 18,7 L9,13 L1,7 L9,1 Z"/></marker></defs><defs><marker id="aggregationEnd" refX="19" refY="7" markerWidth="20" markerHeight="28" orient="auto"><path d="M 18,7 L9,13 L1,7 L9,1 Z"/></marker></defs><defs><marker id="dependencyStart" class="extension" refX="0" refY="7" markerWidth="190" markerHeight="240" orient="auto"><path d="M 5,7 L9,13 L1,7 L9,1 Z"/></marker></defs><defs><marker id="dependencyEnd" refX="19" refY="7" markerWidth="20" markerHeight="28" orient="auto"><path d="M 18,7 L9,13 L14,7 L9,1 Z"/></marker></defs><g id="classid-X86ROPfuscator-340" class="classGroup" transform="translate(410.4023427963257,80.84375 )"><rect x="0" y="0" width="156.515625" height="60.015625" class=" "/><text y="15" x="0"><tspan class="title" x="39.9765625">X86ROPfuscator</tspan></text><line x1="0" y1="21.671875" y2="21.671875" x2="156.515625"/><text x="5" y="31.671875" fill="white" class="classText"><tspan x="5">- ropfuscator: ROPfuscatorCore</tspan></text><line x1="0" y1="38.34375" y2="38.34375" x2="156.515625"/><text x="5" y="53.34375" fill="white" class="classText"><tspan x="5">+runOnMachineFunction()</tspan></text></g><g id="classid-ROPfuscatorCore-341" class="classGroup" transform="translate(433.5898389816284,190.859375 )"><rect x="0" y="0" width="110.140625" height="58.34375" class=" "/><text y="15" x="0"><tspan class="title" x="15.492191314697266">ROPfuscatorCore</tspan></text><line x1="0" y1="21.671875" y2="21.671875" x2="110.14063262939453"/><text x="5" y="31.671875" fill="white" class="classText"/><line x1="0" y1="26.671875" y2="26.671875" x2="110.14063262939453"/><text x="5" y="41.671875" fill="white" class="classText"><tspan x="5">+obfuscateFunction()</tspan><tspan x="5" dy="10">-insertROPChain()</tspan></text></g><g id="classid-ROPEngine-342" class="classGroup" transform="translate(172,310.0390625 )"><rect x="0" y="0" width="72.875" height="58.34375" class=" "/><text y="15" x="0"><tspan class="title" x="11.265625">ROPEngine</tspan></text><line x1="0" y1="21.671875" y2="21.671875" x2="72.875"/><text x="5" y="31.671875" fill="white" class="classText"/><line x1="0" y1="26.671875" y2="26.671875" x2="72.875"/><text x="5" y="41.671875" fill="white" class="classText"><tspan x="5">+ropify()</tspan><tspan x="5" dy="10">-handleXXX()</tspan></text></g><g id="classid-ROPChainBuilder-343" class="classGroup" transform="translate(163.625,454.21875 )"><rect x="0" y="0" width="89.625" height="58.34375" class=" "/><text y="15" x="0"><tspan class="title" x="5">ROPChainBuilder</tspan></text><line x1="0" y1="21.671875" y2="21.671875" x2="89.625"/><text x="5" y="31.671875" fill="white" class="classText"/><line x1="0" y1="26.671875" y2="26.671875" x2="89.625"/><text x="5" y="41.671875" fill="white" class="classText"><tspan x="5">+append()</tspan><tspan x="5" dy="10">+build()</tspan></text></g><g id="classid-BinaryAutopsy-344" class="classGroup" transform="translate(44.75,592.5625 )"><rect x="0" y="0" width="128.6875" height="80.015625" class=" "/><text y="15" x="0"><tspan x="38.8046875">«singleton»</tspan><tspan class="title" dy="10" x="30.53125">BinaryAutopsy</tspan></text><line x1="0" y1="31.671875" y2="31.671875" x2="128.6875"/><text x="5" y="41.671875" fill="white" class="classText"><tspan x="5">- xgraph: XchgGraph</tspan></text><line x1="0" y1="48.34375" y2="48.34375" x2="128.6875"/><text x="5" y="63.34375" fill="white" class="classText"><tspan x="5">+findGadgetPrimitive()</tspan><tspan x="5" dy="10">+undoXchgs()</tspan></text></g><g id="classid-XchgGraph-345" class="classGroup" transform="translate(0,727.578125 )"><rect x="0" y="0" width="74.09375" height="68.34375" class=" "/><text y="15" x="0"><tspan class="title" x="11.7109375">XchgGraph</tspan></text><line x1="0" y1="21.671875" y2="21.671875" x2="74.09375"/><text x="5" y="31.671875" fill="white" class="classText"/><line x1="0" y1="26.671875" y2="26.671875" x2="74.09375"/><text x="5" y="41.671875" fill="white" class="classText"><tspan x="5">+getPath()</tspan><tspan x="5" dy="10">+checkPath()</tspan><tspan x="5" dy="10">+addEdge()</tspan></text></g><g id="classid-ROPChain-346" class="classGroup" transform="translate(243.4375,587.5625 )"><rect x="0" y="0" width="130.03125" height="90.015625" class=" "/><text y="15" x="0"><tspan class="title" x="42.375">ROPChain</tspan></text><line x1="0" y1="21.671875" y2="21.671875" x2="130.03125"/><text x="5" y="31.671875" fill="white" class="classText"><tspan x="5">+ chain: ChainElem[]</tspan><tspan x="5" dy="10">+ successor: ChainElem</tspan><tspan x="5" dy="10">+ flagSave: FlagSaveMode</tspan></text><line x1="0" y1="58.34375" y2="58.34375" x2="130.03125"/><text x="5" y="73.34375" fill="white" class="classText"><tspan x="5">+merge()</tspan><tspan x="5" dy="10">+append()</tspan></text></g><g id="classid-ROPChainPushInst-347" class="classGroup" transform="translate(803.5234365463257,299.203125 )"><rect x="0" y="0" width="179.484375" height="80.015625" class=" "/><text y="15" x="0"><tspan x="66.046875">«abstract»</tspan><tspan class="title" dy="10" x="47.515625">ROPChainPushInst</tspan></text><line x1="0" y1="31.671875" y2="31.671875" x2="179.484375"/><text x="5" y="41.671875" fill="white" class="classText"><tspan x="5">+ opaqueConstant: OpaqueConstruct</tspan><tspan x="5" dy="10">+ steganoInstr : SteganoInstructions</tspan></text><line x1="0" y1="58.34375" y2="58.34375" x2="179.484375"/><text x="5" y="73.34375" fill="white" class="classText"><tspan x="5">+compile()</tspan></text></g><g id="classid-OpaqueConstruct-348" class="classGroup" transform="translate(831.9843740463257,429.21875 )"><rect x="0" y="0" width="142.5625" height="108.34375" class=" "/><text y="15" x="0"><tspan x="45.546875">«interface»</tspan><tspan class="title" dy="10" x="30.7265625">OpaqueConstruct</tspan></text><line x1="0" y1="31.671875" y2="31.671875" x2="142.5625"/><text x="5" y="41.671875" fill="white" class="classText"/><line x1="0" y1="36.671875" y2="36.671875" x2="142.5625"/><text x="5" y="51.671875" fill="white" class="classText"><tspan x="5">+getInput()</tspan><tspan x="5" dy="10">+getOutput()</tspan><tspan x="5" dy="10">+getClobberedRegs()</tspan><tspan x="5" dy="10">+compile()</tspan><tspan x="5" dy="10">+compileStegano()</tspan><tspan x="5" dy="10">+opaquePredicateCount()</tspan></text></g><g id="classid-OpaqueConstructFactory-349" class="classGroup" transform="translate(428.3554677963257,603.3984375 )"><rect x="0" y="0" width="140.609375" height="58.34375" class=" "/><text y="15" x="0"><tspan class="title" x="12.0859375">OpaqueConstructFactory</tspan></text><line x1="0" y1="21.671875" y2="21.671875" x2="140.609375"/><text x="5" y="31.671875" fill="white" class="classText"/><line x1="0" y1="26.671875" y2="26.671875" x2="140.609375"/><text x="5" y="41.671875" fill="white" class="classText"><tspan x="5">+createOpaqueConstant32()</tspan><tspan x="5" dy="10">+compose()</tspan></text></g><g id="classid-InstrSteganoProcessor-350" class="classGroup" transform="translate(555.9921865463257,315.0390625 )"><rect x="0" y="0" width="149.984375" height="48.34375" class=" "/><text y="15" x="0"><tspan class="title" x="23.0390625">InstrSteganoProcessor</tspan></text><line x1="0" y1="21.671875" y2="21.671875" x2="149.984375"/><text x="5" y="31.671875" fill="white" class="classText"/><line x1="0" y1="26.671875" y2="26.671875" x2="149.984375"/><text x="5" y="41.671875" fill="white" class="classText"><tspan x="5">+convertROPChainToStegano()</tspan></text></g><g id="classid-SteganoInstructions-351" class="classGroup" transform="translate(594.800784111023,462.1328125 )"><rect x="0" y="0" width="117.03125" height="42.515625" class=" "/><text y="15" x="0"><tspan class="title" x="12.265621185302734">SteganoInstructions</tspan></text><line x1="0" y1="21.671875" y2="21.671875" x2="117.03124237060547"/><text x="5" y="31.671875" fill="white" class="classText"><tspan x="5">+ instrs: SteganoInstr[]</tspan></text><line x1="0" y1="38.34375" y2="38.34375" x2="117.03124237060547"/><text x="5" y="53.34375" fill="white" class="classText"/></g><g id="classid-llvm_MachineFunctionPass-352" class="classGroup" transform="translate(421.1992177963257,0 )"><rect x="0" y="0" width="134.921875" height="30.84375" class=" "/><text y="15" x="0"><tspan class="title" x="5">llvm_MachineFunctionPass</tspan></text><line x1="0" y1="21.671875" y2="21.671875" x2="134.921875"/><text x="5" y="31.671875" fill="white" class="classText"/><line x1="0" y1="26.671875" y2="26.671875" x2="134.921875"/><text x="5" y="41.671875" fill="white" class="classText"/></g><g id="classid-MultiplyCompareBasedOpaqueConstant-353" class="classGroup" transform="translate(546.2617177963257,746.328125 )"><rect x="0" y="0" width="193.078125" height="30.84375" class=" "/><text y="15" x="0"><tspan class="title" x="5">MultiplyCompareBasedOpaqueConstant</tspan></text><line x1="0" y1="21.671875" y2="21.671875" x2="193.078125"/><text x="5" y="31.671875" fill="white" class="classText"/><line x1="0" y1="26.671875" y2="26.671875" x2="193.078125"/><text x="5" y="41.671875" fill="white" class="classText"/></g><g id="classid-OpaqueConstant32-354" class="classGroup" transform="translate(770.86328125,617.1484375 )"><rect x="0" y="0" width="98.546875" height="30.84375" class=" "/><text y="15" x="0"><tspan class="title" x="5">OpaqueConstant32</tspan></text><line x1="0" y1="21.671875" y2="21.671875" x2="98.546875"/><text x="5" y="31.671875" fill="white" class="classText"/><line x1="0" y1="26.671875" y2="26.671875" x2="98.546875"/><text x="5" y="41.671875" fill="white" class="classText"/></g><g id="classid-MultiplyCompareOpaquePredicate-355" class="classGroup" transform="translate(623.8124990463257,845.921875 )"><rect x="0" y="0" width="169.515625" height="30.84375" class=" "/><text y="15" x="0"><tspan class="title" x="5">MultiplyCompareOpaquePredicate</tspan></text><line x1="0" y1="21.671875" y2="21.671875" x2="169.515625"/><text x="5" y="31.671875" fill="white" class="classText"/><line x1="0" y1="26.671875" y2="26.671875" x2="169.515625"/><text x="5" y="41.671875" fill="white" class="classText"/></g><g id="classid-SteganoInstr-356" class="classGroup" transform="translate(618.9648427963257,617.1484375 )"><rect x="0" y="0" width="68.703125" height="30.84375" class=" "/><text y="15" x="0"><tspan class="title" x="5">SteganoInstr</tspan></text><line x1="0" y1="21.671875" y2="21.671875" x2="68.703125"/><text x="5" y="31.671875" fill="white" class="classText"/><line x1="0" y1="26.671875" y2="26.671875" x2="68.703125"/><text x="5" y="41.671875" fill="white" class="classText"/></g><g id="classid-ChainElem-357" class="classGroup" transform="translate(228.82031059265137,746.328125 )"><rect x="0" y="0" width="59.25" height="30.84375" class=" "/><text y="15" x="0"><tspan class="title" x="5.000001907348633">ChainElem</tspan></text><line x1="0" y1="21.671875" y2="21.671875" x2="59.250003814697266"/><text x="5" y="31.671875" fill="white" class="classText"/><line x1="0" y1="26.671875" y2="26.671875" x2="59.250003814697266"/><text x="5" y="41.671875" fill="white" class="classText"/></g><g id="classid-MicroGadget-358" class="classGroup" transform="translate(174.640625,845.921875 )"><rect x="0" y="0" width="68.265625" height="30.84375" class=" "/><text y="15" x="0"><tspan class="title" x="5">MicroGadget</tspan></text><line x1="0" y1="21.671875" y2="21.671875" x2="68.265625"/><text x="5" y="31.671875" fill="white" class="classText"/><line x1="0" y1="26.671875" y2="26.671875" x2="68.265625"/><text x="5" y="41.671875" fill="white" class="classText"/></g><g id="classid-ELFParser-359" class="classGroup" transform="translate(343.98828315734863,746.328125 )"><rect x="0" y="0" width="57.109375" height="30.84375" class=" "/><text y="15" x="0"><tspan class="title" x="4.999998092651367">ELFParser</tspan></text><line x1="0" y1="21.671875" y2="21.671875" x2="57.109371185302734"/><text x="5" y="31.671875" fill="white" class="classText"/><line x1="0" y1="26.671875" y2="26.671875" x2="57.109371185302734"/><text x="5" y="41.671875" fill="white" class="classText"/></g><path d="M488.6601552963257,30.84375L488.6601552963257,35.010416666666664C488.6601552963257,39.177083333333336,488.6601552963257,47.510416666666664,488.6601552963257,55.84375C488.6601552963257,64.17708333333333,488.6601552963257,72.51041666666667,488.6601552963257,76.67708333333333L488.6601552963257,80.84375" id="edge390" class="relation" marker-start="url(#extensionStart)"/><path d="M488.6601552963257,140.859375L488.6601552963257,145.02604166666666C488.6601552963257,149.19270833333334,488.6601552963257,157.52604166666666,488.6601552963257,165.859375C488.6601552963257,174.19270833333334,488.6601552963257,182.52604166666666,488.6601552963257,186.69270833333334L488.6601552963257,190.859375" id="edge391" class="relation dashed-line" marker-end="url(#dependencyEnd)"/><g class="classLabel"><rect class="box" x="468.1875" y="154.1875" width="40.953125" height="16.671875"/><text class="label" x="488.6601552963257" y="165.859375" fill="red" text-anchor="middle">&lt;&lt;use&gt;&gt;</text></g><path d="M433.5898389816284,230.6772924780985L396.064449151357,237.93159789841545C358.53905932108563,245.18590331873233,283.4882796605428,259.6945141593662,245.9628898302714,272.92147582968306C208.4375,286.1484375,208.4375,298.09375,208.4375,304.06640625L208.4375,310.0390625" id="edge392" class="relation dashed-line" marker-end="url(#dependencyEnd)"/><g class="classLabel"><rect class="box" x="282.9375" y="244.171875" width="40.96875" height="16.671875"/><text class="label" x="303.42141067392066" y="255.84109595349892" fill="red" text-anchor="middle">&lt;&lt;use&gt;&gt;</text></g><path d="M433.5898389816284,227.68915440615896L377.8404908180237,235.44148283846582C322.09114265441895,243.19381127077267,210.59244632720947,258.69846813538635,154.84309816360474,277.28543198435983C99.09375,295.8723958333333,99.09375,317.5416666666667,99.09375,339.2109375C99.09375,360.8802083333333,99.09375,382.5494791666667,99.09375,406.5794270833333C99.09375,430.609375,99.09375,457,99.09375,483.390625C99.09375,509.78125,99.09375,536.171875,99.80795600379422,554.3671875C100.52216200758845,572.5625,101.95057401517688,582.5625,102.6647800189711,587.5625L103.37898602276532,592.5625" id="edge393" class="relation dashed-line" marker-end="url(#dependencyEnd)"/><g class="classLabel"><rect class="box" x="88.046875" y="261.21875" width="40.953125" height="16.6875"/><text class="label" x="108.52835102729254" y="272.8911791530869" fill="red" text-anchor="middle">&lt;&lt;use&gt;&gt;</text></g><path d="M494.0452144252556,249.203125L494.81437123710066,253.36979166666666C495.58352804894565,257.5364583333333,497.12184167263564,265.8697916666667,497.8909984844807,280.87109375C498.6601552963257,295.8723958333333,498.6601552963257,317.5416666666667,498.6601552963257,339.2109375C498.6601552963257,360.8802083333333,498.6601552963257,382.5494791666667,498.6601552963257,406.5794270833333C498.6601552963257,430.609375,498.6601552963257,457,498.6601552963257,483.390625C498.6601552963257,509.78125,498.6601552963257,536.171875,498.6601552963257,556.1731770833334C498.6601552963257,576.1744791666666,498.6601552963257,589.7864583333334,498.6601552963257,596.5924479166666L498.6601552963257,603.3984375" id="edge394" class="relation dashed-line" marker-end="url(#dependencyEnd)"/><g class="classLabel"><rect class="box" x="478.1875" y="414.421875" width="40.953125" height="16.671875"/><text class="label" x="498.6601552963257" y="426.0895885517963" fill="red" text-anchor="middle">&lt;&lt;use&gt;&gt;</text></g><path d="M543.730471611023,240.9922805105591L558.2727886835734,246.52742125879925C572.8151057561239,252.06256200703942,601.8997399012247,263.1328435035197,616.4420569737753,275.4739738350932C630.9843740463257,287.8151041666667,630.9843740463257,301.4270833333333,630.9843740463257,308.2330729166667L630.9843740463257,315.0390625" id="edge395" class="relation dashed-line" marker-end="url(#dependencyEnd)"/><g class="classLabel"><rect class="box" x="585.953125" y="253.1875" width="40.96875" height="16.6875"/><text class="label" x="606.4398542160337" y="264.86091555835077" fill="red" text-anchor="middle">&lt;&lt;use&gt;&gt;</text></g><path d="M498.6601552963257,661.7421875L498.6601552963257,668.5481770833334C498.6601552963257,675.3541666666666,498.6601552963257,688.9661458333334,516.4224011373608,703.0638020833334C534.1846469783959,717.1614583333334,569.7091386604662,731.7447916666666,587.4713845015013,739.0364583333334L605.2336303425365,746.328125" id="edge396" class="relation dashed-line" marker-end="url(#dependencyEnd)"/><g class="classLabel"><rect class="box" x="505.578125" y="705.03125" width="54.953125" height="16.671875"/><text class="label" x="533.0585438655147" y="716.6991762207608" fill="red" text-anchor="middle">&lt;&lt;create&gt;&gt;</text></g><path d="M846.3862250602666,537.5625L842.0113073418888,541.7291666666666C837.636389623511,545.8958333333334,828.8865541867555,554.2291666666666,824.5116364683778,567.4934895833334C820.13671875,580.7578125,820.13671875,598.953125,820.13671875,608.05078125L820.13671875,617.1484375" id="edge397" class="relation dashed-line" marker-start="url(#extensionStart)"/><path d="M820.13671875,647.9921875L820.13671875,657.08984375C820.13671875,666.1875,820.13671875,684.3828125,798.2838612695718,700.7721354166666C776.4310037891437,717.1614583333334,732.7252888282874,731.7447916666666,710.8724313478593,739.0364583333334L689.0195738674312,746.328125" id="edge398" class="relation dashed-line" marker-start="url(#extensionStart)"/><path d="M642.8007802963257,777.171875L642.8007802963257,784.4635416666666C642.8007802963257,791.7552083333334,642.8007802963257,806.3385416666666,649.5802706970472,817.796875C656.3597610977688,829.2552083333334,669.9187418992119,837.5885416666666,676.6982322999335,841.7552083333334L683.477722700655,845.921875" id="edge399" class="relation" marker-start="url(#compositionStart)"/><g class="cardinality"><text class="type1" x="632.8007802963257" y="789.671875" fill="black" font-size="6">1</text></g><g class="cardinality"><text class="type2" x="675.4463189296017" y="835.1169430952488" fill="black" font-size="6">32</text></g><path d="M932.0968859184887,537.5625L934.314462064795,541.7291666666666C936.5320382111009,545.8958333333334,940.9671905037134,554.2291666666666,943.1847666500195,570.0638020833334C945.4023427963257,585.8984375,945.4023427963257,609.234375,945.4023427963257,632.5703125C945.4023427963257,655.90625,945.4023427963257,679.2421875,945.4023427963257,700.7721354166666C945.4023427963257,722.3020833333334,945.4023427963257,742.0260416666666,945.4023427963257,761.75C945.4023427963257,781.4739583333334,945.4023427963257,801.1979166666666,920.0566396713257,815.3858345085135C894.7109365463257,829.5737523503603,844.0195302963257,838.2256297007207,818.6738271713257,842.5515683759008L793.3281240463257,846.8775070510811" id="edge400" class="relation dashed-line" marker-start="url(#extensionStart)"/><path d="M653.3164052963257,504.6484375L653.3164052963257,514.30078125C653.3164052963257,523.953125,653.3164052963257,543.2578125,653.3164052963257,562.0078125C653.3164052963257,580.7578125,653.3164052963257,598.953125,653.3164052963257,608.05078125L653.3164052963257,617.1484375" id="edge401" class="relation" marker-start="url(#compositionStart)"/><path d="M630.9843740463257,363.3828125L630.9843740463257,370.1888020833333C630.9843740463257,376.9947916666667,630.9843740463257,390.6067708333333,633.7070131433629,407.0651041666667C636.4296522404001,423.5234375,641.8749304344745,442.828125,644.5975695315118,452.48046875L647.3202086285489,462.1328125" id="edge402" class="relation dashed-line" marker-end="url(#dependencyEnd)"/><g class="classLabel"><rect class="box" x="606.125" y="401.84375" width="54.96875" height="16.6875"/><text class="label" x="633.6092807418676" y="413.52461127431206" fill="red" text-anchor="middle">&lt;&lt;create&gt;&gt;</text></g><path d="M208.4375,368.3828125L208.4375,374.35546875C208.4375,380.328125,208.4375,392.2734375,208.4375,406.5794270833333C208.4375,420.8854166666667,208.4375,437.5520833333333,208.4375,445.8854166666667L208.4375,454.21875" id="edge403" class="relation dashed-line" marker-end="url(#dependencyEnd)"/><g class="classLabel"><rect class="box" x="187.953125" y="399.625" width="40.96875" height="16.6875"/><text class="label" x="208.4375" y="411.30078125" fill="red" text-anchor="middle">&lt;&lt;use&gt;&gt;</text></g><path d="M227.52702886337875,512.5625L232.98020618553656,520.8958333333334C238.4333835076944,529.2291666666666,249.33973815201003,545.8958333333334,257.66206145958165,558.3958333333334C265.98438476715324,570.8958333333334,271.72267673798086,579.2291666666666,274.5918227233946,583.3958333333334L277.4609687088084,587.5625" id="edge404" class="relation dashed-line" marker-end="url(#dependencyEnd)"/><g class="classLabel"><rect class="box" x="224.71875" y="538.59375" width="54.953125" height="16.671875"/><text class="label" x="252.19686418359328" y="550.2619821287856" fill="red" text-anchor="middle">&lt;&lt;create&gt;&gt;</text></g><path d="M433.5898389816284,247.14700193581672L424.431636651357,251.65635577984725C415.27343432108563,256.16570962387783,396.9570296605428,265.1844173119389,387.7988273302714,280.52840657263613C378.640625,295.8723958333333,378.640625,317.5416666666667,378.640625,339.2109375C378.640625,360.8802083333333,378.640625,382.5494791666667,378.640625,406.5794270833333C378.640625,430.609375,378.640625,457,378.640625,483.390625C378.640625,509.78125,378.640625,536.171875,374.4632638423911,553.5338541666666C370.28590268478223,570.8958333333334,361.9311803695644,579.2291666666666,357.7538192119555,583.3958333333334L353.57645805434663,587.5625" id="edge405" class="relation dashed-line" marker-end="url(#dependencyEnd)"/><g class="classLabel"><rect class="box" x="358.15625" y="393.78125" width="40.96875" height="16.6875"/><text class="label" x="378.640625" y="405.4586425538111" fill="red" text-anchor="middle">&lt;&lt;use&gt;&gt;</text></g><path d="M543.730471611023,227.40451240504564L601.9863303502401,235.20428117087135C660.2421890894572,243.0040499366971,776.7539065678915,258.6035874683485,835.0097653071085,270.5700229008409C893.2656240463257,282.5364583333333,893.2656240463257,290.8697916666667,893.2656240463257,295.0364583333333L893.2656240463257,299.203125" id="edge406" class="relation dashed-line" marker-end="url(#dependencyEnd)"/><g class="classLabel"><rect class="box" x="693.296875" y="240.78125" width="75.171875" height="16.6875"/><text class="label" x="730.8874942501783" y="252.46261868102636" fill="red" text-anchor="middle">&lt;&lt;create/use&gt;&gt;</text></g><path d="M899.4199324227227,379.21875L900.0608810266566,383.3854166666667C900.7018296305904,387.5520833333333,901.9837268384581,395.8854166666667,902.6246754423919,404.21875C903.2656240463257,412.5520833333333,903.2656240463257,420.8854166666667,903.2656240463257,425.0520833333333L903.2656240463257,429.21875" id="edge407" class="relation" marker-start="url(#aggregationStart)"/><path d="M803.5234365463257,378.1190915673196L793.4902335802714,382.469034639433C783.4570306142172,386.81897771154644,763.3906246821085,395.5188638557732,742.384000212007,409.5211506778866C721.3773757419054,423.5234375,699.4305327338111,442.828125,688.4571112297639,452.48046875L677.4836897257167,462.1328125" id="edge408" class="relation" marker-start="url(#aggregationStart)"/><path d="M208.4375,512.5625L208.4375,520.8958333333334C208.4375,529.2291666666666,208.4375,545.8958333333334,208.4375,565.8971354166666C208.4375,585.8984375,208.4375,609.234375,208.4375,632.5703125C208.4375,655.90625,208.4375,679.2421875,214.5998921749846,698.2018229166666C220.76228434996918,717.1614583333334,233.08706869993838,731.7447916666666,239.249460874923,739.0364583333334L245.4118530499076,746.328125" id="edge409" class="relation dashed-line" marker-end="url(#dependencyEnd)"/><g class="classLabel"><rect class="box" x="180.953125" y="624.53125" width="54.96875" height="16.6875"/><text class="label" x="208.4375" y="636.2110408577915" fill="red" text-anchor="middle">&lt;&lt;create&gt;&gt;</text></g><path d="M183.55332030802055,512.5625L176.4448240560714,520.8958333333334C169.33632780412225,529.2291666666666,155.11933530022398,545.8958333333334,145.7390502535367,559.2291666666666C136.35876520684943,572.5625,131.81518761737314,582.5625,129.543398822635,587.5625L127.27161002789687,592.5625" id="edge410" class="relation dashed-line" marker-end="url(#dependencyEnd)"/><g class="classLabel"><rect class="box" x="131.0625" y="538.421875" width="40.953125" height="16.6875"/><text class="label" x="151.53540287794348" y="550.0972990808625" fill="red" text-anchor="middle">&lt;&lt;use&gt;&gt;</text></g><path d="M109.09375,672.578125L109.09375,677.578125C109.09375,682.578125,109.09375,692.578125,109.09375,707.4401041666666C109.09375,722.3020833333334,109.09375,742.0260416666666,109.09375,761.75C109.09375,781.4739583333334,109.09375,801.1979166666666,120.01822916666667,815.4899652124644C130.94270833333334,829.7820137582621,152.79166666666666,838.6421525165242,163.71614583333334,843.0722218956553L174.640625,847.5022912747864" id="edge411" class="relation" marker-start="url(#aggregationStart)"/><path d="M258.4453125,777.171875L258.4453125,784.4635416666666C258.4453125,791.7552083333334,258.4453125,806.3385416666666,253.3251604577374,817.796875C248.20500841547482,829.2552083333334,237.96470433094964,837.5885416666666,232.84455228868705,841.7552083333334L227.72440024642444,845.921875" id="edge412" class="relation" marker-start="url(#aggregationStart)"/><path d="M173.4375,649.6687317206753L206.62174479166666,658.486963933896C239.80598958333334,667.3051961471168,306.1744791666667,684.9416605735584,339.3587239583333,701.0515594534459C372.54296875,717.1614583333334,372.54296875,731.7447916666666,372.54296875,739.0364583333334L372.54296875,746.328125" id="edge413" class="relation dashed-line" marker-end="url(#dependencyEnd)"/><g class="classLabel"><rect class="box" x="273.65625" y="670.0625" width="40.953125" height="16.6875"/><text class="label" x="294.13151672876705" y="681.7414178083784" fill="red" text-anchor="middle">&lt;&lt;use&gt;&gt;</text></g><path d="M67.920661407767,672.578125L62.77503033980583,677.578125C57.62939927184467,682.578125,47.33813713592233,692.578125,42.19250606796117,701.7447916666666C37.046875,710.9114583333334,37.046875,719.2447916666666,37.046875,723.4114583333334L37.046875,727.578125" id="edge414" class="relation dashed-line" marker-end="url(#dependencyEnd)"/><g class="classLabel"><rect class="box" x="23.046875" y="684.609375" width="40.953125" height="16.6875"/><text class="label" x="43.51898371388247" y="696.2891891742463" fill="red" text-anchor="middle">&lt;&lt;use&gt;&gt;</text></g><path d="M308.453125,677.578125L308.453125,681.7447916666666C308.453125,685.9114583333334,308.453125,694.2447916666666,302.29073282501537,705.703125C296.1283406500308,717.1614583333334,283.80355630006164,731.7447916666666,277.641164125077,739.0364583333334L271.47877195009244,746.328125" id="edge415" class="relation" marker-start="url(#compositionStart)"/></svg>